<svg xmlns="http://www.w3.org/2000/svg" width="62" height="32" viewBox="0 0 62 32">
  <defs>
    <style>
      .cls-1 {
        fill: #f5fbff;
        fill-rule: evenodd;
      }
    </style>
  </defs>
  <path id="header_header_logo.svg" data-name="header/header_logo.svg" class="cls-1" d="M1754.37,54.833l-4.46-5.525,4.3-5.015h-2.94l-3.91,4.739V44.293h-2.38v10.54h2.38v-5.2l4.05,5.2h2.96Zm2.19-8.241a1.191,1.191,0,0,1-.89-0.373,1.244,1.244,0,0,1-.36-0.9,1.227,1.227,0,0,1,1.25-1.254,1.156,1.156,0,0,1,.89.358,1.235,1.235,0,0,1,.34.9,1.269,1.269,0,0,1-.34.9A1.132,1.132,0,0,1,1756.56,46.593Zm-1.16,8.241V47.578h2.32v7.255h-2.32Zm9.04-7.248a2.556,2.556,0,0,0-.93-0.157,2.481,2.481,0,0,0-1.87.7c-0.01,0-.01.006-0.01,0.009V47.578h-2.32v7.255h2.32V50.862a1.442,1.442,0,0,1,.34-1.052,1.207,1.207,0,0,1,.92-0.351,1.381,1.381,0,0,1,.52.09,0.947,0.947,0,0,1,.36.239l1.37-1.732A1.993,1.993,0,0,0,1764.44,47.585Zm6.63-.007V48.2a2.576,2.576,0,0,0-.69-0.488,3.031,3.031,0,0,0-1.33-.284,3.389,3.389,0,0,0-1.8.485,3.534,3.534,0,0,0-1.25,1.344,4.138,4.138,0,0,0-.46,1.948,4.049,4.049,0,0,0,.46,1.934,3.625,3.625,0,0,0,1.26,1.344,3.3,3.3,0,0,0,1.79.5,3.129,3.129,0,0,0,1.35-.283,2.658,2.658,0,0,0,.67-0.476v0.61h2.27V47.578h-2.27Zm-0.35,4.852a1.548,1.548,0,0,1-1.19.478,1.587,1.587,0,0,1-1.42-.821,1.873,1.873,0,0,1,0-1.761,1.586,1.586,0,0,1,1.42-.821,1.7,1.7,0,0,1,.86.216,1.434,1.434,0,0,1,.57.6,1.889,1.889,0,0,1,.2.873A1.771,1.771,0,0,1,1770.72,52.43Zm15.54-3.657a2.584,2.584,0,0,0-1.04-.993,3.136,3.136,0,0,0-1.49-.351,3.33,3.33,0,0,0-1.55.358,0.789,0.789,0,0,1-1.56-.015,2.737,2.737,0,0,0-1.36-.343,3.134,3.134,0,0,0-1.47.336,2.753,2.753,0,0,0-.52.367V47.578h-2.32v7.255h2.32V50.594a1.1,1.1,0,0,1,.16-0.612,1.066,1.066,0,0,1,.43-0.4,1.3,1.3,0,0,1,.62-0.142,1.18,1.18,0,0,1,.83.306,1.067,1.067,0,0,1,.34.844v4.239h2.32V50.594a1.181,1.181,0,0,1,.15-0.612,1.006,1.006,0,0,1,.43-0.4,1.315,1.315,0,0,1,.61-0.142,1.19,1.19,0,0,1,.82.306,1.1,1.1,0,0,1,.34.844v4.239h2.31V50.325A3.026,3.026,0,0,0,1786.26,48.772Zm8.52,0.388a3.449,3.449,0,0,0-1.31-1.284,3.876,3.876,0,0,0-1.93-.463,4.051,4.051,0,0,0-2,.493,3.663,3.663,0,0,0-1.91,3.284,3.67,3.67,0,0,0,1.97,3.322,4.435,4.435,0,0,0,2.11.485,4.552,4.552,0,0,0,1.7-.306,3.279,3.279,0,0,0,1.31-.948l-1.28-1.254a2.155,2.155,0,0,1-.77.56,2.4,2.4,0,0,1-.96.187,2.037,2.037,0,0,1-1.02-.246,1.652,1.652,0,0,1-.66-0.709,2.754,2.754,0,0,1-.11-0.3l5.22-.025a3.663,3.663,0,0,0,.1-0.485c0.01-.144.02-0.286,0.02-0.426A3.66,3.66,0,0,0,1794.78,49.16Zm-4.15.255a1.725,1.725,0,0,1,.94-0.255,1.543,1.543,0,0,1,.85.224,1.376,1.376,0,0,1,.54.635,3.006,3.006,0,0,1,.11.357l-3.15.018a2.25,2.25,0,0,1,.09-0.278A1.767,1.767,0,0,1,1790.63,49.414Zm13.14,5.419L1800.93,51l2.67-3.426h-2.57l-2.37,3.265V43.995h-2.32V54.833h2.32V51.317l2.38,3.517h2.73Zm1.97-8.241a1.191,1.191,0,0,1-.89-0.373,1.244,1.244,0,0,1-.36-0.9,1.227,1.227,0,0,1,1.25-1.254,1.156,1.156,0,0,1,.89.358,1.235,1.235,0,0,1,.34.9,1.269,1.269,0,0,1-.34.9A1.132,1.132,0,0,1,1805.74,46.593Zm-1.16,8.241V47.578h2.32v7.255h-2.32Zm-41.11,10.51a5.1,5.1,0,0,0-1.18-1.664,5.342,5.342,0,0,0-1.78-1.09,6.332,6.332,0,0,0-2.22-.38h-4.28v10.54h4.31a6.092,6.092,0,0,0,2.2-.388,5.277,5.277,0,0,0,1.77-1.1,5.08,5.08,0,0,0,1.18-1.672A5.579,5.579,0,0,0,1763.47,65.343Zm-2.43,3.845a2.721,2.721,0,0,1-1.1,1.112,3.489,3.489,0,0,1-1.68.389h-1.87V64.268h1.87a3.493,3.493,0,0,1,1.66.381,2.719,2.719,0,0,1,1.12,1.106,3.553,3.553,0,0,1,.39,1.71A3.589,3.589,0,0,1,1761.04,69.189Zm10.8-2.113a3.451,3.451,0,0,0-1.31-1.284,3.906,3.906,0,0,0-1.93-.463,4.053,4.053,0,0,0-2,.493,3.748,3.748,0,0,0,.06,6.607,4.427,4.427,0,0,0,2.11.485,4.55,4.55,0,0,0,1.7-.306,3.281,3.281,0,0,0,1.31-.948l-1.28-1.254a2.163,2.163,0,0,1-.77.56,2.414,2.414,0,0,1-.96.186,2.009,2.009,0,0,1-1.02-.247,1.594,1.594,0,0,1-.66-0.71,1.563,1.563,0,0,1-.11-0.3l5.22-.025a3.657,3.657,0,0,0,.1-0.484c0.01-.145.02-0.287,0.02-0.426A3.66,3.66,0,0,0,1771.84,67.075Zm-4.15.255a1.725,1.725,0,0,1,.94-0.255,1.548,1.548,0,0,1,.85.224,1.38,1.38,0,0,1,.54.636,3,3,0,0,1,.1.356l-3.14.018a2.283,2.283,0,0,1,.09-0.278A1.693,1.693,0,0,1,1767.69,67.33Zm8.39,5.612a4.94,4.94,0,0,1-2.44-.649,4.139,4.139,0,0,1-.91-0.709l1.32-1.314a2.7,2.7,0,0,0,.87.605,2.646,2.646,0,0,0,1.09.216,1.213,1.213,0,0,0,.59-0.12,0.368,0.368,0,0,0,.22-0.343,0.421,0.421,0,0,0-.26-0.4,3.619,3.619,0,0,0-.67-0.239c-0.27-.075-0.56-0.158-0.86-0.254a4.151,4.151,0,0,1-.86-0.381,1.886,1.886,0,0,1-.66-0.657,2.314,2.314,0,0,1,.1-2.305,2.461,2.461,0,0,1,1.03-.815,3.83,3.83,0,0,1,1.58-.3,4.516,4.516,0,0,1,1.71.321,2.928,2.928,0,0,1,1.28.947l-1.31,1.33a2.031,2.031,0,0,0-.77-0.575,2.271,2.271,0,0,0-.84-0.171,1.116,1.116,0,0,0-.58.119,0.363,0.363,0,0,0-.2.314,0.41,0.41,0,0,0,.26.359,3.47,3.47,0,0,0,.67.239c0.26,0.069.55,0.152,0.85,0.246a3.474,3.474,0,0,1,.85.4,2,2,0,0,1,.67.686,2.148,2.148,0,0,1,.25,1.112,2.062,2.062,0,0,1-.8,1.7A3.432,3.432,0,0,1,1776.08,72.942Zm5.39-8.435a1.191,1.191,0,0,1-.89-0.374,1.243,1.243,0,0,1-.36-0.9,1.228,1.228,0,0,1,1.25-1.254,1.2,1.2,0,0,1,.9.359,1.279,1.279,0,0,1,.34.9,1.313,1.313,0,0,1-.34.9A1.167,1.167,0,0,1,1781.47,64.507Zm-1.16,8.241V65.493h2.32v7.255h-2.32Zm8.82-7.255v0.486a2.382,2.382,0,0,0-.56-0.36,3.2,3.2,0,0,0-1.35-.276,3.426,3.426,0,0,0-1.78.47,3.348,3.348,0,0,0-1.24,1.277,3.865,3.865,0,0,0,0,3.657,3.42,3.42,0,0,0,1.23,1.3,3.362,3.362,0,0,0,1.79.477,3.116,3.116,0,0,0,1.35-.283,2.857,2.857,0,0,0,.52-0.326v0.446a1.471,1.471,0,0,1-.49,1.193,2.024,2.024,0,0,1-1.35.418,2.627,2.627,0,0,1-1.15-.238,2.78,2.78,0,0,1-.88-0.7l-1.43,1.4a3.426,3.426,0,0,0,1.44,1.158,5.028,5.028,0,0,0,2.1.411,4.718,4.718,0,0,0,2.1-.456,3.474,3.474,0,0,0,1.45-1.291,3.6,3.6,0,0,0,.53-1.956V65.493h-2.28Zm-0.63,4.792a1.635,1.635,0,0,1-.84.21,1.525,1.525,0,0,1-.81-0.21,1.476,1.476,0,0,1-.55-0.575,1.545,1.545,0,0,1-.21-0.783,1.631,1.631,0,0,1,.2-0.791,1.454,1.454,0,0,1,.56-0.567,1.6,1.6,0,0,1,.82-0.209,1.558,1.558,0,0,1,.83.209,1.473,1.473,0,0,1,.54.567,1.713,1.713,0,0,1,.19.777,1.758,1.758,0,0,1-.19.813A1.473,1.473,0,0,1,1788.5,70.285Zm11.31-3.56a2.656,2.656,0,0,0-1-1.008,2.737,2.737,0,0,0-1.43-.373,3.216,3.216,0,0,0-1.51.352,2.968,2.968,0,0,0-.55.388v-0.59H1793v7.255h2.32V68.613a1.285,1.285,0,0,1,.17-0.657,1.151,1.151,0,0,1,.45-0.439,1.332,1.332,0,0,1,.65-0.158,1.237,1.237,0,0,1,.9.351,1.209,1.209,0,0,1,.36.9v4.136h2.32V68.106A2.749,2.749,0,0,0,1799.81,66.725Z" transform="translate(-1744.97 -44)"/>
</svg>
