<svg xmlns="http://www.w3.org/2000/svg" width="70" height="85" viewBox="0 0 70 85">
  <defs>
    <style>
      .cls-1 {
        fill: #fff;
        fill-rule: evenodd;
      }
    </style>
  </defs>
  <path id="business_business_list_img_3.svg" data-name="business/business_list_img_3.svg" class="cls-1" d="M1810.44,2102.05h-13.02v-36.03h13.02v2.64h-10.35v30.75h10.35v2.64Zm14.34,1.11a6.471,6.471,0,1,1,6.56-6.47A6.535,6.535,0,0,1,1824.78,2103.16Zm0-10.3a3.826,3.826,0,1,0,3.89,3.83A3.863,3.863,0,0,0,1824.78,2092.86Zm27.5-48.18v-2.72a13.1,13.1,0,0,0-13.19-12.99h-4.6a13.1,13.1,0,0,0-13.19,12.99v2.72h-7.57v2.64h7.57v5.95h2.67v-5.95h25.64v5.95h2.67v-5.95h6.02v66.31h2.68v-68.95h-8.7Zm-28.31,0v-2.72a10.444,10.444,0,0,1,10.52-10.34h4.6a10.444,10.444,0,0,1,10.52,10.34v2.72h-25.64Zm29.76,35.91-7.58-11.15v-7.17h-25.53v7.16l-7.74,11.16h-0.24v30.4h-18.99V2064.8a10.418,10.418,0,0,1,6.8-9.76l0.86-.32v-9.69h6v9.69l0.85,0.32a10.418,10.418,0,0,1,6.8,9.76v3.74h2.67v-3.74a13.032,13.032,0,0,0-7.65-11.87v-7.9h0.92v-2.64h-0.92v-6.78h-11.34v6.78h-0.92v2.64h0.92v7.91a13.006,13.006,0,0,0-7.66,11.86l0.03,49.18,62.97-.01v-33.38h-0.25Zm-52.42-42.33h6v4.13h-6v-4.13Zm47.94,40.47-6.38-3.75,1.93-2.78Zm-2.08,1.86h-8.2l2.38-3.42Zm-23.88-15.67h20.19v3.6h-20.19v-3.6Zm12.21,46.07h-20.19v-27.75h20.19v27.75Zm0-30.4h-19.38l6.54-9.42h19.61l-6.54,9.42h-0.23Zm15.81,30.4h-13.14v-27.75h13.14v27.75Z" transform="translate(-1790.97 -2028.97)"/>
</svg>
