<svg xmlns="http://www.w3.org/2000/svg" width="97" height="80" viewBox="0 0 97 80">
  <defs>
    <style>
      .cls-1 {
        fill: #fff;
        fill-rule: evenodd;
      }
    </style>
  </defs>
  <path id="business_business_list_img_1.svg" data-name="business/business_list_img_1.svg" class="cls-1" d="M1869.64,1858.45a5.34,5.34,0,1,0-5.14-6.76h-31.87v-3.28a1.425,1.425,0,0,0-1.42-1.42h-9.42a1.425,1.425,0,0,0-1.42,1.42v3.53h-31.81a5.322,5.322,0,1,0-.13,2.84h21.18c-13.87,5.27-24.03,16.83-26.38,30.98h-3.8a1.419,1.419,0,0,0-1.42,1.42v9.4a1.419,1.419,0,0,0,1.42,1.42h9.42a1.419,1.419,0,0,0,1.42-1.42v-9.4a1.419,1.419,0,0,0-1.42-1.42h-2.75c2.89-16.03,16.65-28.41,34.27-30.8v2.86a1.417,1.417,0,0,0,1.42,1.41h2.05l-21.51,32.15a1.44,1.44,0,0,0-.09,1.42l9.83,19.91a17.126,17.126,0,0,0-5.84,12.95,1.41,1.41,0,0,0,1.41,1.35h37.72a1.41,1.41,0,0,0,1.41-1.35,17.126,17.126,0,0,0-5.84-12.95l9.83-19.92a1.4,1.4,0,0,0-.09-1.41l-21.51-32.15h2.05a1.417,1.417,0,0,0,1.42-1.41v-2.86c17.62,2.39,31.38,14.77,34.27,30.8h-2.75a1.419,1.419,0,0,0-1.42,1.42v9.4a1.419,1.419,0,0,0,1.42,1.42h9.42a1.419,1.419,0,0,0,1.42-1.42v-9.4a1.419,1.419,0,0,0-1.42-1.42h-3.8c-2.38-14.37-12.83-26.08-27.04-31.23h21.77A5.341,5.341,0,0,0,1869.64,1858.45Zm-82.21,36.71h-6.58v-6.56h6.58v6.56Zm84.72,0h-6.58v-6.56h6.58v6.56Zm-2.51-44.55a2.5,2.5,0,1,1-2.5,2.5h0A2.5,2.5,0,0,1,1869.64,1850.61Zm-86.28,5a2.5,2.5,0,1,1,2.5-2.5h0A2.5,2.5,0,0,1,1783.36,1855.61Zm43.14,31.62a4.65,4.65,0,1,1-4.65,4.65A4.648,4.648,0,0,1,1826.5,1887.23Zm17.38,36.94h-34.75a14.221,14.221,0,0,1,5.2-9.66h24.34A14.113,14.113,0,0,1,1843.88,1924.17Zm-5.61-12.5h-23.54l-9.58-19.4,19.93-29.78v22.04a7.5,7.5,0,1,0,2.84,0v-22.04l19.93,29.78Zm-8.48-55.27h-6.58v-6.57h6.58v6.57Z" transform="translate(-1778 -1847)"/>
</svg>
