<svg xmlns="http://www.w3.org/2000/svg" width="96" height="74" viewBox="0 0 96 74">
  <defs>
    <style>
      .cls-1 {
        fill: #fff;
        fill-rule: evenodd;
      }
    </style>
  </defs>
  <path id="business_business_list_img_4.svg" data-name="business/business_list_img_4.svg" class="cls-1" d="M2433.96,2063.27A3.47,3.47,0,0,0,2431,2060h-4v-25h-89l-0.03,73.97L2427,2109v-33h4a3.456,3.456,0,0,0,2.96-3.29v-9.44ZM2341,2038h83v7h-83.02Zm-0.02,67.99v-58.01L2424,2048v12h-59l-0.8.54-14.84,7.45,14.84,7.44,0.8,0.57h59v30ZM2367,2066v-3h57v3h-57Zm57,4v3h-57v-3h57Zm-59.8,2.09-8.18-4.1,8.18-4.11v8.21ZM2431,2073h-4v-10h4v10Zm-11,11h-75v-32h75v6h-3v-3h-69v26h69v-3h3v6Zm-56,7v8h-16v-8h16Zm-19-3v14h22v-14h-22Zm-2-48h3v3h-3v-3Zm6,0h3v3h-3v-3Zm6,0h3v3h-3v-3Zm35,51v8h-15v-8h15Zm-18-3v14h21v-14h-21Zm45,3v8h-16v-8h16Zm-19-3v14h22v-14h-22Z" transform="translate(-2337.97 -2035)"/>
</svg>
